inDegrees=no
num_controls=7
num_derivatives=13
num_iterations=142
num_multipliers=7
num_parameters=0
num_slacks=7
num_states=26
objective=5.524681
objective_accelerations=0.669406
objective_balance=0.036899
objective_effort=0.248291
objective_height=4.525168
objective_ligament=0.044917
solver_duration=1576.736140
status=Solve_Succeeded
success=true
DataType=double
version=3
OpenSimVersion=4.4-2022-07-23-0e9fedc
endheader
time	/jointset/ground_pelvis/pelvis_tilt/value	/jointset/ground_pelvis/pelvis_tx/value	/jointset/ground_pelvis/pelvis_ty/value	/jointset/hip_l/hip_flexion_l/value	/jointset/hip_l/hip_adduction_l/value	/jointset/hip_l/hip_rotation_l/value	/jointset/back/lumbar_extension/value	/jointset/patellofemoral_l/patellar_flexion_l/value	/jointset/knee_l/knee_flexion_l/value	/jointset/knee_l/knee_adduction_l/value	/jointset/knee_l/knee_rotation_l/value	/jointset/ankle_l/ankle_angle_l/value	/jointset/subtalar_l/subtalar_angle_l/value	/jointset/ground_pelvis/pelvis_tilt/speed	/jointset/ground_pelvis/pelvis_tx/speed	/jointset/ground_pelvis/pelvis_ty/speed	/jointset/hip_l/hip_flexion_l/speed	/jointset/hip_l/hip_adduction_l/speed	/jointset/hip_l/hip_rotation_l/speed	/jointset/back/lumbar_extension/speed	/jointset/patellofemoral_l/patellar_flexion_l/speed	/jointset/knee_l/knee_flexion_l/speed	/jointset/knee_l/knee_adduction_l/speed	/jointset/knee_l/knee_rotation_l/speed	/jointset/ankle_l/ankle_angle_l/speed	/jointset/subtalar_l/subtalar_angle_l/speed	/forceset/tau_hip_flexion_l	/forceset/tau_hip_adduction_l	/forceset/tau_hip_rotation_l	/forceset/tau_knee_flexion_l	/forceset/tau_ankle_angle_l	/forceset/tau_subtalar_angle_l	/forceset/tau_lumbar_extension	lambda_cid13_p0	lambda_cid13_p1	lambda_cid13_p2	lambda_cid13_p3	lambda_cid13_p4	lambda_cid13_p5	lambda_cid14_p0	/jointset/ground_pelvis/pelvis_tilt/accel	/jointset/ground_pelvis/pelvis_tx/accel	/jointset/ground_pelvis/pelvis_ty/accel	/jointset/hip_l/hip_flexion_l/accel	/jointset/hip_l/hip_adduction_l/accel	/jointset/hip_l/hip_rotation_l/accel	/jointset/back/lumbar_extension/accel	/jointset/patellofemoral_l/patellar_flexion_l/accel	/jointset/knee_l/knee_flexion_l/accel	/jointset/knee_l/knee_adduction_l/accel	/jointset/knee_l/knee_rotation_l/accel	/jointset/ankle_l/ankle_angle_l/accel	/jointset/subtalar_l/subtalar_angle_l/accel	gamma_cid13_p0	gamma_cid13_p1	gamma_cid13_p2	gamma_cid13_p3	gamma_cid13_p4	gamma_cid13_p5	gamma_cid14_p0
0.5	-0.2383245872458694	0.01909083347208482	0.7734910118946685	0.9339291763800515	-0.4435334914300143	-0.2271703106245953	-0.2508836462318483	0.853126111597416	0.8531261115973332	-0.1100732563009456	-0.1634281618765247	0.22160467756217	0.02548009881615276	-0.509474476268566	-0.08103674756297616	-0.4922860032256278	2.039393053128445	-0.232752167938906	0.7513605875160438	-0.1367112177956145	2.109453502871548	2.109453502871923	0.1730825653724688	-0.06893889396755006	0.7671463146624411	0.1654821283224411	-0.1226173800149119	0.02660063637140404	-0.01336115483536822	-0.2373171600434764	0.009953245377275398	0.03649929839517758	0.1363538087775605	-28.87917286427649	-14.86421568795418	6.681741071952232	-1.826850595449859	-522.5194805683261	-67.85698128423735	-23.03200230141421	0.4570867242004417	0.4054081766365731	-0.4832239356372781	-1.049639206756179	0.6526046449220941	-0.3282271246714727	0.998216618414182	-1.394691694733142	-1.394691694733097	0.05241571711719314	0.1584481834075072	-0.6271927320666001	0.5476285495112789	-6.133530331539184e-07	-9.815313487874893e-10	3.817253338393353e-06	2.713619104538541e-07	-7.302337411270435e-07	-6.068151687546136e-07	-4.686096140153755e-07
0.51	-0.2433952405064975	0.01830081721797218	0.7685450957218328	0.9542666154200381	-0.4458293968149196	-0.2196705016850204	-0.2522015919147009	0.8741475300129906	0.8741475300130096	-0.1083449326704964	-0.1641083078566888	0.2292431977340002	0.02716015239739554	-0.504585703643893	-0.07696358164186405	-0.496788587485588	2.027810432938466	-0.2264168709962481	0.7485061144138455	-0.1268964464861719	2.094543317166161	2.094543317166135	0.1725676988608071	-0.06708569263840825	0.7604466966640974	0.1704947050078916	-0.1267503218316735	0.02786918430357893	-0.01321573470075682	-0.2404698045772731	0.007243562964996324	0.03645242044340656	0.139644784623156	-29.91349646170987	-14.62365308732632	6.598724774000233	-1.397325783384146	-525.7955479896393	-67.61575114439262	-22.03863332768534	0.5152587362665171	0.4087663796657244	-0.4176234893340067	-1.255320965859383	0.6252449890220786	-0.2787589395184956	0.9703282302586831	-1.582118800017493	-1.582118800077565	-0.1054678213690068	0.2001843801126466	-0.7079866517618759	0.4725297031202051	-5.844371883478004e-07	1.419549702061324e-07	3.835267262907229e-06	3.026818643172248e-07	-7.137163571672714e-07	-4.717690746832276e-07	-4.558227940812114e-07
0.52	-0.2484149087999444	0.01755163173903369	0.7635573841427664	0.9744796787499881	-0.4480616986763804	-0.2122021777837691	-0.2534219457158438	0.8950112592132186	0.8950112592133004	-0.1066221637023915	-0.1647696361690242	0.2368113936622408	0.02888922324050429	-0.4992774828325935	-0.07287059252814637	-0.5006450844718229	2.014517911118845	-0.2200314632502237	0.7450635798506801	-0.1171928414547407	2.07791565979774	2.077915659797314	0.1719716329067063	-0.06517536041146853	0.7530814659440144	0.1752855806956747	-0.130883263648309	0.02913773223578165	-0.01307031456684334	-0.2436224491110138	0.00453388055272915	0.03640554249169036	0.14293576046886	-30.9492563683393	-14.38165789035606	6.514133691024666	-1.010145299672172	-529.1152503311952	-67.43668240032969	-21.05169976214446	0.5409763615255545	0.4093728151577994	-0.3540064808921981	-1.391619532684749	0.662626805595335	-0.445839416864928	0.975983362811855	-1.738186027339842	-1.738186027339874	0.03617582862936662	0.169874362967068	-0.760315276414314	0.5032883499778473	-5.518913248936253e-07	2.884091119400559e-07	3.838537297212132e-06	3.350035178622881e-07	-6.970147326270216e-07	-3.290901157228063e-07	-4.406115729226402e-07
0.53	-0.253379513788118	0.01684342360747459	0.758534374905243	0.9945515291895607	-0.4502298460735392	-0.2047708730589299	-0.254545856612713	0.9157003120354353	0.9157003120355315	-0.1049058403530849	-0.1654114062311734	0.2443027205763002	0.03066518265417061	-0.4935776627669155	-0.0687724935666038	-0.5038443994740527	1.999577812512284	-0.2135918761259375	0.7411004274142333	-0.1076174573783396	2.059621840317783	2.059621840317682	0.1712788617842524	-0.06317922697442381	0.7450799358403897	0.1798671987194746	-0.1349279204488057	0.03024571068370877	-0.01283748561386835	-0.2469315334080123	0.001911427764438701	0.03623832991312874	0.1461329959699846	-31.96710789838641	-14.07825974409778	6.405726980014895	-0.5598688428993748	-532.4858254606069	-67.20361775840125	-20.07587128173622	0.5942791373388554	0.4098798656030959	-0.286177124483486	-1.586457934604955	0.6349673206249759	-0.3865000689516714	0.9440980109881211	-1.915853033951804	-1.915853033903096	-0.123969190276911	0.2151430606697312	-0.8356380293970572	0.4292239740860241	-5.130393512917247e-07	4.291797920479818e-07	3.802184559789266e-06	3.626060356135529e-07	-6.72751925288618e-07	-1.827510173495062e-07	-4.21281909315172e-07
0.54	-0.2582851617139861	0.01617616675132053	0.7534827158947789	1.014465728061072	-0.4523335290685004	-0.1973821892408289	-0.25557485725263	0.9361982520377828	0.9361982520378206	-0.103196837836525	-0.166033082913539	0.2517109189589153	0.03248568333717575	-0.487486070371257	-0.06468033744713807	-0.5063750390600507	1.98298759750717	-0.2071385828104792	0.7365393985011249	-0.09821079006456918	2.039693095812702	2.039693095812926	0.1705074663580493	-0.06115668447352968	0.7364557596543492	0.1841938345634747	-0.138972577249287	0.03135368913167686	-0.01260465666254752	-0.2502406177049271	-0.0007110250238224788	0.03607111733466686	0.1493302314711082	-32.98561165010433	-13.77286714989394	6.294857397658176	-0.1528963613181486	-535.8840947628842	-67.02631480270018	-19.11370156829682	0.619330827521469	0.4081842467425234	-0.2202713976458281	-1.721642812395385	0.6653680438296544	-0.5654147121972847	0.9422400102856723	-2.065171032364847	-2.065171032364849	0.02045096787948987	0.1751561757369293	-0.8848444928973196	0.4522919140179377	-4.672104047604257e-07	5.636623869526764e-07	3.721993862156951e-06	3.849873818482745e-07	-6.401235540033212e-07	-3.236240303004242e-08	-3.973956710833922e-07
0.55	-0.2631280667595607	0.01554974869160769	0.7484091203573615	1.034206064977575	-0.454372496383162	-0.1900418694083419	-0.2565106707279179	0.9564889117910531	0.956488911791106	-0.1014958417095374	-0.1666342241202017	0.2590298825738776	0.03434835461585577	-0.481031681271043	-0.06060910779466761	-0.5082282843142348	1.964811838104661	-0.200652760060352	0.7314309421478821	-0.08899396842033687	2.01817618070588	2.018176180706027	0.1696752041701627	-0.05907068371551009	0.7272390122472562	0.1882973011391779	-0.1428950509801529	0.03233492690557307	-0.01227869023050741	-0.2537371854234527	-0.003197658959307071	0.03577113040910501	0.1524045487366214	-33.97060966955995	-13.40082041015499	6.156388461155176	0.3099509953627942	-539.3175607573795	-66.78145171651026	-18.16718643886892	0.6679031684466361	0.4057967689633522	-0.150607938164855	-1.905827221157245	0.6399320959564	-0.4979618598575167	0.9050937272617614	-2.234275997550184	-2.234275997562	-0.1373741802627439	0.2261778547531834	-0.9547344300392837	0.3823715494356965	-4.193482543043538e-07	6.752321802265793e-07	3.603462394685718e-06	3.996553740186578e-07	-6.023189441600047e-07	1.082566431403101e-07	-3.716098260903084e-07
